<svg width="423" height='226' viewBox="0 0 423 226" fill="none" xmlns="http://www.w3.org/2000/svg">
<path d="M216.471 191.505L140.752 28.4901C139.836 26.5216 139.754 24.2761 140.522 22.2476C141.29 20.2192 142.846 18.5739 144.848 17.6738C146.85 16.7736 149.133 16.6923 151.196 17.4478C153.258 18.2032 154.931 19.7336 155.847 21.7021C155.936 21.8917 156.017 22.0958 156.091 22.2854L218.918 190.513C218.978 190.673 219.006 190.844 218.999 191.015C218.992 191.185 218.951 191.353 218.878 191.508C218.805 191.664 218.701 191.803 218.573 191.919C218.445 192.034 218.295 192.124 218.132 192.183C217.819 192.293 217.475 192.285 217.168 192.16C216.861 192.035 216.612 191.801 216.471 191.505Z" fill="#F7CA60"/>
<path d="M216.398 191.835L65.885 46.1654C64.9848 45.294 64.2669 44.2556 63.772 43.1095C63.2771 41.9633 63.015 40.7318 63.0006 39.4853C62.9863 38.2389 63.22 37.0018 63.6884 35.8448C64.1568 34.6877 64.8507 33.6334 65.7305 32.7419C66.6103 31.8505 67.6588 31.1394 68.8161 30.6493C69.9734 30.1592 71.2169 29.8996 72.4755 29.8854C73.7341 29.8712 74.9832 30.1026 76.1515 30.5665C77.3198 31.0304 78.3843 31.7176 79.2844 32.589C79.4629 32.7547 79.6323 32.9298 79.7919 33.1134L218.619 189.752C218.751 189.901 218.853 190.074 218.918 190.262C218.983 190.45 219.01 190.649 218.997 190.848C218.984 191.046 218.931 191.24 218.842 191.418C218.754 191.596 218.63 191.755 218.479 191.886C218.188 192.136 217.813 192.269 217.428 192.26C217.043 192.25 216.676 192.099 216.398 191.835Z" fill="#EB4487"/>
<path d="M215.816 192.261L45.7932 168.763C44.0301 168.52 42.4359 167.586 41.3613 166.167C40.2867 164.748 39.8197 162.96 40.0631 161.197C40.3065 159.433 41.2403 157.839 42.6591 156.764C44.0779 155.689 45.8654 155.222 47.6286 155.465L48.0617 155.539L216.184 190.124C216.447 190.189 216.677 190.351 216.825 190.579C216.974 190.806 217.031 191.081 216.984 191.349C216.937 191.617 216.791 191.857 216.574 192.02C216.357 192.184 216.087 192.26 215.816 192.231V192.261Z" fill="#F7CA60"/>
<path d="M217.278 189.287L414.435 199.134C415.616 199.19 416.774 199.48 417.844 199.985C418.913 200.491 419.872 201.204 420.667 202.082C421.462 202.961 422.076 203.988 422.474 205.105C422.872 206.221 423.047 207.406 422.989 208.591C422.93 209.776 422.64 210.937 422.133 212.009C421.627 213.081 420.914 214.042 420.037 214.837C419.16 215.632 418.135 216.246 417.021 216.644C415.907 217.041 414.726 217.214 413.545 217.153C413.317 217.153 413.075 217.116 412.854 217.087L217.028 192.142C216.709 192.041 216.434 191.833 216.248 191.554C216.062 191.275 215.976 190.941 216.006 190.606C216.035 190.272 216.177 189.958 216.408 189.715C216.639 189.473 216.946 189.316 217.278 189.272V189.287Z" fill="#EB4487"/>
<path d="M205.722 189.287L8.56506 199.134C7.38409 199.19 6.22577 199.48 5.15639 199.985C4.08701 200.491 3.12756 201.204 2.33301 202.082C1.53847 202.961 0.924408 203.988 0.52597 205.105C0.127518 206.221 -0.0474701 207.406 0.0110168 208.591C0.0695038 209.776 0.360321 210.937 0.866806 212.009C1.37329 213.081 2.08551 214.042 2.96269 214.837C3.83986 215.632 4.86476 216.246 5.97874 216.644C7.09271 217.041 8.27388 217.214 9.45461 217.153C9.68251 217.153 9.92513 217.116 10.1457 217.087L205.972 192.142C206.291 192.041 206.566 191.833 206.752 191.554C206.938 191.275 207.024 190.941 206.994 190.606C206.965 190.272 206.823 189.958 206.592 189.715C206.361 189.473 206.054 189.316 205.722 189.272V189.287Z" fill="#EB4487"/>
<path d="M207.593 183.101L102.169 103.443C101.019 102.577 100.259 101.287 100.055 99.8577C99.851 98.428 100.221 96.9755 101.082 95.8197C101.944 94.6639 103.228 93.8995 104.65 93.6947C106.073 93.4899 107.518 93.8614 108.669 94.7275L108.96 94.9621L208.68 181.753C208.858 181.898 208.971 182.107 208.995 182.336C209.019 182.565 208.952 182.794 208.808 182.973C208.663 183.152 208.455 183.266 208.227 183.29C207.999 183.314 207.771 183.246 207.593 183.101Z" fill="#3B74F7"/>
<path d="M215.5 190.547L375.579 46.3646C377.512 44.6201 380.061 43.7132 382.664 43.8434C385.267 43.9736 387.712 45.1302 389.461 47.0589C391.209 48.9875 392.118 51.5302 391.988 54.1275C391.857 56.7248 390.698 59.164 388.765 60.9086C388.582 61.0767 388.377 61.2448 388.186 61.3909L217.507 192.945C217.186 193.184 216.784 193.292 216.386 193.246C215.987 193.199 215.622 193.002 215.365 192.695C215.107 192.388 214.978 191.994 215.003 191.594C215.028 191.195 215.206 190.82 215.5 190.547Z" fill="#F7CA60"/>
<path d="M216.104 188.234L307.774 4.6781C308.922 2.63737 310.815 1.11128 313.064 0.414699C315.312 -0.281886 317.745 -0.095826 319.86 0.934491C321.974 1.96481 323.609 3.76078 324.427 5.95187C325.246 8.14296 325.185 10.562 324.258 12.7099C324.154 12.9071 324.044 13.1261 323.926 13.3087L218.695 189.622C218.491 189.924 218.18 190.139 217.824 190.226C217.468 190.313 217.092 190.265 216.77 190.091C216.448 189.918 216.202 189.631 216.082 189.288C215.961 188.944 215.974 188.569 216.118 188.234H216.104Z" fill="#3B74F7"/>
<path d="M296.451 175.029L363.388 150.674C364.43 150.294 365.581 150.345 366.586 150.815C367.591 151.285 368.369 152.135 368.748 153.18C369.127 154.224 369.077 155.376 368.608 156.384C368.139 157.391 367.29 158.17 366.248 158.55C366.118 158.596 365.986 158.635 365.852 158.668L296.84 176.3C296.673 176.344 296.495 176.322 296.343 176.238C296.192 176.154 296.079 176.014 296.029 175.849C295.979 175.683 295.994 175.504 296.073 175.349C296.152 175.195 296.287 175.077 296.451 175.021V175.029Z" fill="#FAFAFA"/>
<path d="M135.592 158.282L61.4 120.756C60.675 120.413 60.0278 119.932 59.4966 119.341C58.9654 118.75 58.5609 118.061 58.3071 117.315C58.0533 116.569 57.9552 115.781 58.0188 114.997C58.0824 114.214 58.3062 113.451 58.6771 112.753C59.0481 112.055 59.5586 111.437 60.1785 110.935C60.7984 110.433 61.5151 110.057 62.2864 109.83C63.0576 109.602 63.8677 109.528 64.6689 109.611C65.4701 109.694 66.246 109.933 66.951 110.314C67.1668 110.425 67.3763 110.548 67.5784 110.681L136.574 156.676C136.778 156.81 136.922 157.014 136.977 157.248C137.031 157.482 136.99 157.728 136.865 157.934C136.739 158.14 136.536 158.291 136.3 158.356C136.063 158.42 135.81 158.394 135.592 158.282Z" fill="#FAFAFA"/>
<path d="M219.075 108.142L219 24.8471C219 24.0698 219.316 23.3242 219.879 22.7745C220.441 22.2248 221.204 21.916 222 21.916C222.796 21.916 223.559 22.2248 224.121 22.7745C224.684 23.3242 225 24.0698 225 24.8471V24.9864L220.027 108.142C220.02 108.266 219.963 108.381 219.869 108.463C219.775 108.545 219.651 108.588 219.525 108.582C219.409 108.574 219.299 108.525 219.216 108.444C219.134 108.363 219.084 108.256 219.075 108.142Z" fill="#FAFAFA"/>
<path d="M223.477 182.451L340.289 105.675C340.972 105.21 341.739 104.886 342.548 104.722C343.356 104.558 344.189 104.556 344.998 104.718C345.807 104.879 346.576 105.2 347.26 105.663C347.944 106.125 348.529 106.719 348.982 107.41C349.434 108.101 349.745 108.876 349.895 109.688C350.046 110.501 350.034 111.336 349.859 112.143C349.685 112.951 349.351 113.716 348.879 114.394C348.406 115.071 347.804 115.647 347.106 116.089C346.979 116.175 346.847 116.253 346.71 116.324L224.503 184.148C224.279 184.284 224.009 184.325 223.754 184.263C223.499 184.2 223.279 184.038 223.143 183.813C223.007 183.588 222.966 183.318 223.029 183.063C223.091 182.808 223.252 182.587 223.477 182.451Z" fill="#3B74F7"/>
<path d="M163.557 122.704L179.642 132.165L157.503 153.295L141.418 143.834L163.557 122.704Z" fill="#104A37"/>
<path d="M125.643 186.24L141.728 195.701L138.081 225.583L121.996 216.122L125.643 186.24Z" fill="#104A37"/>
<path d="M141.418 143.835L157.503 153.296L191.595 195.702L175.503 186.241L141.418 143.835Z" fill="#104A37"/>
<path d="M175.506 186.24L191.598 195.701H141.729L125.645 186.24H175.506Z" fill="#104A37"/>
<path d="M163.559 122.704L179.643 132.165L213.736 174.578L197.644 165.117L163.559 122.704Z" fill="#2CC995"/>
<path d="M163.633 122.104L179.718 131.565L213.465 173.555L197.373 164.094L163.633 122.104Z" fill="#104A37"/>
<path d="M232.567 105.581L248.652 115.042H221.003L204.918 105.581H232.567Z" fill="#104A37"/>
<path d="M204.916 105.581L221.001 115.042L213.737 174.579L197.645 165.118L204.916 105.581Z" fill="#104A37"/>
<path d="M232.565 105.581L248.65 115.042L241.385 174.579L225.293 165.118L232.565 105.581Z" fill="#2CC995"/>
<path d="M233.011 105.157L249.096 114.618L241.905 173.555L225.812 164.094L233.011 105.157Z" fill="#104A37"/>
<path d="M269.739 122.704L285.831 132.165L241.385 174.578L225.293 165.117L269.739 122.704Z" fill="#104A37"/>
<path d="M269.742 122.704L285.834 132.165L302.807 153.295L286.715 143.834L269.742 122.704Z" fill="#2CC995"/>
<path d="M286.712 143.835L302.805 153.296L258.358 195.702L242.273 186.241L286.712 143.835Z" fill="#2CC995"/>
<path d="M269.812 122.104L285.905 131.565L303.362 153.295L287.27 143.834L269.812 122.104Z" fill="#104A37"/>
<path d="M287.272 143.835L303.364 153.296L259.358 195.285L243.273 185.817L287.272 143.835Z" fill="#104A37"/>
<path d="M292.142 186.24L308.227 195.701H258.358L242.273 186.24H292.142Z" fill="#104A37"/>
<path d="M288.495 216.122L304.58 225.583H138.081L121.996 216.122H288.495Z" fill="#2CC995"/>
<path d="M232.565 105.581L225.293 165.118L269.739 122.704L286.712 143.834L242.273 186.24H292.142L288.495 216.122H121.996L125.643 186.24H175.505L141.42 143.834L163.558 122.704L197.643 165.118L204.915 105.581H232.565Z" fill="#2CC995"/>
<path d="M243.272 185.816H292.583L288.833 216.524H121.527L125.277 185.816H174.588L140.834 143.834L163.581 122.105L197.336 164.094L204.608 105.157H233.05L225.815 164.072L269.843 122.083L287.3 143.813L243.272 185.816ZM288.496 216.122L292.165 186.241H242.266L286.705 143.834L269.733 122.705L225.286 165.111L232.566 105.581H204.916L197.644 165.118L163.559 122.712L141.421 143.842L175.506 186.248H125.644L121.975 216.129H288.474" fill="#104A37"/>
<path d="M292.143 186.24L308.228 195.701L304.581 225.583L288.496 216.122L292.143 186.24Z" fill="#2CC995"/>
<path d="M292.585 185.816L308.67 195.285L304.92 226L288.828 216.539L292.585 185.816Z" fill="#104A37"/>
<path d="M288.827 216.538L304.92 225.999H137.643L121.551 216.538H288.827Z" fill="#104A37"/>
<path d="M281 147.433L277.668 134.821L265 131.494L277.668 128.175L281 115.556L284.34 128.175L297 131.494L284.34 134.821L281 147.433Z" fill="white"/>
<path d="M376 154.406C377.657 154.406 379 152.845 379 150.919C379 148.994 377.657 147.433 376 147.433C374.343 147.433 373 148.994 373 150.919C373 152.845 374.343 154.406 376 154.406Z" fill="white"/>
<path d="M140.5 14.9423C144.09 14.9423 147 12.2663 147 8.96529C147 5.66428 144.09 2.98828 140.5 2.98828C136.91 2.98828 134 5.66428 134 8.96529C134 12.2663 136.91 14.9423 140.5 14.9423Z" fill="#F7CA60"/>
</svg>
