<svg width="15" height="16" viewBox="0 0 15 16" fill="none" xmlns="http://www.w3.org/2000/svg">
<path fill-rule="evenodd" clip-rule="evenodd" d="M2.19342 3.37335L3.37335 2.69568L3.53227 2.96854L7.88163 0.460274L7.56379 0.277364L7.24445 0.0914552L7.08552 0L0 4.09299V4.2759L2.0345 3.09898L2.19342 3.37335Z" fill="white"/>
<path fill-rule="evenodd" clip-rule="evenodd" d="M2.19342 5.95052L5.60275 3.98049L5.76167 4.25785L10.111 1.74808L9.7932 1.56217L9.47385 1.37926L9.31493 1.28931L0 6.66717V6.85008L2.0345 5.67316L2.19342 5.95052Z" fill="white"/>
<path fill-rule="evenodd" clip-rule="evenodd" d="M2.19342 7.23824L6.71671 4.62652L6.87713 4.90089L11.225 2.38812L10.9072 2.20821L10.5893 2.0223L10.4289 1.93085L0 7.95189V8.1378L2.0345 6.96238L2.19342 7.23824Z" fill="white"/>
<path fill-rule="evenodd" clip-rule="evenodd" d="M2.19342 8.5248L7.86364 5.2519L8.02406 5.52627L12.3404 3.03449L12.0226 2.84858L11.7033 2.66567L11.5443 2.57422L0 9.24145V9.42436L2.0345 8.24743L2.19342 8.5248Z" fill="white"/>
<path fill-rule="evenodd" clip-rule="evenodd" d="M2.19342 9.80961L8.9791 5.89353L9.13802 6.1709L13.4544 3.67612L13.1366 3.49471L12.8187 3.3088L12.6583 3.21735L0 10.5263V10.7092L2.0345 9.53525L2.19342 9.80961Z" fill="white"/>
<path fill-rule="evenodd" clip-rule="evenodd" d="M13.9327 3.95349L13.7737 3.86053L0 11.8156V11.9985L2.0345 10.8246L2.19342 11.099L8.9791 7.1829L9.13802 7.45727L14.171 4.55319V4.18438V4.09292L13.9327 3.95349Z" fill="white"/>
<path fill-rule="evenodd" clip-rule="evenodd" d="M0.87272 12.7796L2.01366 12.1214L2.17258 12.3958L8.94626 8.48573L9.10518 8.76309L14.1712 5.83803V5.46921V5.10039V4.91748L0.716797 12.6882L0.87272 12.7796Z" fill="white"/>
<path fill-rule="evenodd" clip-rule="evenodd" d="M8.94608 9.77504L9.105 10.0524L14.171 7.12734V6.75852V6.3897V6.20679L1.83057 13.3313L1.99099 13.4227L3.14842 12.7526L3.30884 13.0299" fill="white"/>
<path fill-rule="evenodd" clip-rule="evenodd" d="M3.10528 14.0674L4.26421 13.3958L4.42313 13.6731L8.94642 11.0599L9.10534 11.3373L14.1714 8.41221V8.04339V7.67757V7.49316L2.94336 13.973L3.10528 14.0674Z" fill="white"/>
<path fill-rule="evenodd" clip-rule="evenodd" d="M4.21898 14.7106L5.37791 14.0419L5.53833 14.3163L8.94616 12.3493L9.10508 12.6236L14.1711 9.69856V9.33274V8.96392V8.78101L4.06006 14.6191L4.21898 14.7106Z" fill="white"/>
<path fill-rule="evenodd" clip-rule="evenodd" d="M5.17578 15.2624L5.3347 15.3538L6.49663 14.6837L6.65256 14.961L8.94643 13.6342L9.10535 13.9115L14.1714 10.9865V10.6176V10.2488V10.0659L5.17578 15.2624Z" fill="white"/>
<path fill-rule="evenodd" clip-rule="evenodd" d="M6.44798 15.9999L7.60692 15.3268L7.76584 15.6041L8.94576 14.9205L9.10468 15.1978L14.1707 12.2758V11.907V11.5381V11.3552L6.28906 15.9085L6.44798 15.9999Z" fill="white"/>
<path fill-rule="evenodd" clip-rule="evenodd" d="M8.99709 1.1034L8.67774 0.920491L8.3599 0.737581L8.20098 0.643127L0 5.37781V5.56072L2.0345 4.38829L2.19342 4.66116L4.4873 3.33731L4.65072 3.61467L8.99709 1.1034Z" fill="white"/>
</svg>
