<svg width="24" height="24" viewBox="0 0 24 24" fill="none" xmlns="http://www.w3.org/2000/svg">
<path d="M12 4V6.72727" stroke="#2CC995" stroke-width="2" stroke-linecap="round" stroke-linejoin="round"/>
<path d="M19.071 6.92871L17.1428 8.85689" stroke="#2CC995" stroke-width="2" stroke-linecap="round" stroke-linejoin="round"/>
<path d="M22 14H19.2727" stroke="#2CC995" stroke-width="2" stroke-linecap="round" stroke-linejoin="round"/>
<path d="M7.45459 9.4541L10.7146 12.7141" stroke="#2CC995" stroke-width="2" stroke-linecap="round" stroke-linejoin="round"/>
<path d="M2 14H4.72727" stroke="#2CC995" stroke-width="2" stroke-linecap="round" stroke-linejoin="round"/>
<path fill-rule="evenodd" clip-rule="evenodd" d="M12.0001 12.1816C13.0046 12.1816 13.8182 12.9953 13.8182 13.9998C13.8182 15.0044 13.0046 15.818 12.0001 15.818C10.9955 15.818 10.1819 15.0044 10.1819 13.9998C10.1819 12.9953 10.9955 12.1816 12.0001 12.1816V12.1816Z" stroke="#2CC995" stroke-width="2" stroke-linecap="round" stroke-linejoin="round"/>
<path fill-rule="evenodd" clip-rule="evenodd" d="M19.7136 20.3636C21.1418 18.6345 22 16.4173 22 14C22 8.47727 17.5227 4 12 4C6.47727 4 2 8.47727 2 14C2 16.4173 2.85818 18.6345 4.28636 20.3636H19.7136V20.3636Z" stroke="#2CC995" stroke-width="2" stroke-linecap="round" stroke-linejoin="round"/>
</svg>
