<svg width="78" height="78" viewBox="0 0 88 88" fill="none" xmlns="http://www.w3.org/2000/svg">
<path d="M43.1349 52.67C42.4667 51.6866 42.161 50.4995 42.2707 49.3136C42.3803 48.1278 42.8984 47.0176 43.7354 46.175L46.4039 43.4923C47.2416 42.6502 48.3458 42.129 49.5253 42.0188C50.7048 41.9087 51.8855 42.2165 52.8632 42.8891L55.5974 44.7697C55.6283 44.6303 55.6712 44.4939 55.7257 44.362C56.0901 43.5948 57.8073 39.7465 58.1074 39.2542C58.5603 38.5104 59.1954 37.8958 59.9519 37.4692C60.7085 37.0427 61.5612 36.8184 62.4286 36.8179H66.2013C66.4736 36.82 66.7454 36.8442 67.0138 36.8904C67.0489 36.712 67.0671 36.5306 67.0679 36.3488V31.0902C67.0676 30.4218 66.8351 29.7745 66.4106 29.2602C65.986 28.7459 65.3961 28.3969 64.7428 28.2735L58.6822 27.1302C58.2367 27.0501 57.8198 26.8539 57.4732 26.5612C57.1266 26.2685 56.8624 25.8896 56.7069 25.4622C56.4208 24.6507 56.0933 23.8545 55.7257 23.0769C55.5367 22.6639 55.4582 22.2083 55.4982 21.7554C55.5381 21.3025 55.6951 20.868 55.9534 20.4949L59.4321 15.3799C59.8068 14.828 59.9782 14.1619 59.9167 13.4965C59.8552 12.831 59.5648 12.2081 59.0954 11.735L55.3973 8.0171C54.927 7.54469 54.3075 7.25225 53.6456 7.1903C52.9838 7.12835 52.3212 7.30079 51.7723 7.67781L46.6855 11.1771C46.3145 11.4372 45.8822 11.595 45.4316 11.6349C44.9811 11.6748 44.528 11.5953 44.1175 11.4045C43.3438 11.0348 42.5514 10.706 41.7436 10.4193C41.3188 10.2621 40.9422 9.9958 40.6514 9.64692C40.3606 9.29803 40.1657 8.87868 40.086 8.43056L38.949 2.33795C38.827 1.68097 38.4803 1.08759 37.969 0.660606C37.4576 0.233618 36.8139 -7.82105e-05 36.1492 1.96343e-08H30.9194C30.2548 0.000308064 29.6111 0.234042 29.0997 0.660818C28.5882 1.08759 28.2411 1.6806 28.1182 2.33739L26.9812 8.43056C26.9014 8.87867 26.7063 9.29798 26.4154 9.6468C26.1245 9.99561 25.7478 10.2618 25.3229 10.4189C24.5156 10.7052 23.7238 11.0341 22.9508 11.404C22.54 11.5946 22.0868 11.6738 21.6361 11.634C21.1855 11.5941 20.753 11.4365 20.3816 11.1767L15.2947 7.67738C14.7457 7.3007 14.0832 7.12847 13.4214 7.19041C12.7596 7.25235 12.1401 7.54457 11.6696 8.01668L7.97306 11.735C7.5035 12.2079 7.2128 12.8308 7.1511 13.4962C7.08939 14.1616 7.26056 14.8278 7.63507 15.3799L11.1152 20.4949C11.3736 20.8681 11.5304 21.3029 11.5701 21.756C11.6098 22.2091 11.5309 22.6647 11.3413 23.0776C10.9731 23.8551 10.6456 24.6515 10.3602 25.4635C10.2044 25.8907 9.93996 26.2693 9.59327 26.5618C9.24658 26.8542 8.82973 27.0502 8.38425 27.1302L2.32525 28.2735C1.67189 28.3968 1.08189 28.7457 0.657297 29.2601C0.232702 29.7744 0.000200749 30.4217 0 31.0902V36.3488C0.000195137 37.0172 0.232691 37.6646 0.657285 38.1789C1.08188 38.6933 1.67188 39.0423 2.32525 39.1655L8.38298 40.3082C8.82895 40.3882 9.24624 40.5845 9.59321 40.8774C9.94018 41.1703 10.2047 41.5495 10.3603 41.9773C10.646 42.7887 10.9734 43.5846 11.3414 44.3617C11.531 44.7747 11.6099 45.2304 11.5702 45.6834C11.5306 46.1365 11.3737 46.5713 11.1153 46.9446L7.63521 52.0596C7.26033 52.6114 7.08893 53.2776 7.15065 53.943C7.21236 54.6084 7.5033 55.2312 7.9732 55.7038L11.6699 59.4224C12.1402 59.8948 12.7598 60.1872 13.4217 60.2491C14.0837 60.3109 14.7462 60.1382 15.295 59.761L20.3818 56.2624C20.7535 56.0031 21.1859 55.8458 21.6365 55.8059C22.0871 55.7661 22.5402 55.845 22.9511 56.035C23.7239 56.4056 24.5157 56.7346 25.3232 57.0209C25.7482 57.1779 26.1249 57.4441 26.4159 57.7929C26.7069 58.1417 26.902 58.5611 26.9819 59.0092L28.1189 65.1025C28.2418 65.7593 28.589 66.3523 29.1004 66.779C29.6119 67.2058 30.2555 67.4395 30.9201 67.4398H36.1499C36.5245 67.4378 36.8949 67.361 37.2396 67.2139C37.1504 66.8436 37.103 66.4644 37.0983 66.0835V62.2899C37.0986 61.4352 37.3121 60.5942 37.7192 59.8439C38.1263 59.0936 38.7141 58.458 39.4287 57.9952C41.3239 57.1327 43.2761 56.4028 45.2713 55.8108L43.1349 52.67ZM33.5339 44.5287C31.4077 44.5287 29.3293 43.8948 27.5615 42.707C25.7936 41.5193 24.4158 39.8311 23.6021 37.856C22.7885 35.8808 22.5756 33.7074 22.9904 31.6106C23.4052 29.5138 24.429 27.5877 25.9325 26.076C27.4359 24.5643 29.3514 23.5348 31.4367 23.1178C33.522 22.7007 35.6834 22.9148 37.6477 23.733C39.612 24.5512 41.2909 25.9367 42.4721 27.7143C43.6533 29.4919 44.2837 31.5818 44.2837 33.7197C44.2835 36.5864 43.1509 39.3356 41.135 41.3627C39.119 43.3897 36.3848 44.5285 33.5339 44.5285V44.5287Z" fill="#7A7A7A"/>
<path d="M86.7385 60.7601L82.3663 59.936C81.9568 59.8619 81.5738 59.6809 81.2556 59.4113C80.9374 59.1416 80.6952 58.7927 80.5531 58.3994C80.3538 57.8305 80.1247 57.2726 79.8667 56.728C79.6913 56.3492 79.6177 55.9307 79.6532 55.5144C79.6887 55.0981 79.8321 54.6984 80.0692 54.3552L82.5798 50.6649C82.7835 50.3656 82.8766 50.004 82.8433 49.6429C82.8099 49.2818 82.652 48.9438 82.397 48.6873L79.7289 46.0046C79.4739 45.7482 79.1377 45.5894 78.7786 45.5558C78.4195 45.5223 78.06 45.616 77.7623 45.8208L74.0921 48.345C73.7509 48.5834 73.3534 48.7277 72.9393 48.7634C72.5252 48.7992 72.1091 48.7251 71.7324 48.5486C71.1907 48.2896 70.6359 48.0592 70.0703 47.8585C69.6791 47.7157 69.3321 47.4721 69.0639 47.1522C68.7957 46.8322 68.6158 46.447 68.5421 46.0352L67.7217 41.6387C67.6552 41.2823 67.4668 40.9604 67.1893 40.7288C66.9117 40.4972 66.5624 40.3703 66.2017 40.3702H62.4286C62.0679 40.3703 61.7186 40.4972 61.441 40.7288C61.1635 40.9604 60.9751 41.2823 60.9086 41.6387L60.0882 46.0352C60.0145 46.447 59.8347 46.8321 59.5665 47.1521C59.2984 47.472 58.9514 47.7156 58.5603 47.8584C57.9946 48.0592 57.4397 48.2896 56.8979 48.5486C56.5212 48.7251 56.1051 48.7991 55.691 48.7634C55.277 48.7277 54.8795 48.5834 54.5382 48.345L50.8683 45.8208C50.5706 45.616 50.211 45.5223 49.8519 45.5558C49.4927 45.5894 49.1565 45.7482 48.9014 46.0046L46.2335 48.6869C45.9785 48.9433 45.8206 49.2814 45.7872 49.6425C45.7538 50.0036 45.847 50.3651 46.0506 50.6645L48.5613 54.3546C48.7983 54.6978 48.9418 55.0975 48.9773 55.5139C49.0128 55.9302 48.9392 56.3486 48.7638 56.7274C48.5058 57.272 48.2767 57.8299 48.0773 58.3988C47.9352 58.7922 47.6929 59.1411 47.3747 59.4108C47.0564 59.6804 46.6733 59.8614 46.2637 59.9355L41.8916 60.7595C41.537 60.8265 41.2169 61.0159 40.9865 61.295C40.7561 61.5741 40.63 61.9254 40.6299 62.2882V66.0818C40.6299 66.4445 40.756 66.7958 40.9864 67.075C41.2168 67.3541 41.537 67.5434 41.8916 67.6103L46.2637 68.4344C46.6733 68.5085 47.0563 68.6895 47.3745 68.9592C47.6926 69.2289 47.9349 69.5778 48.0769 69.9711C48.2763 70.54 48.5054 71.0979 48.7633 71.6424C48.9388 72.0212 49.0125 72.4396 48.9769 72.856C48.9414 73.2723 48.7979 73.672 48.5609 74.0152L46.0502 77.7055C45.8466 78.0048 45.7534 78.3663 45.7868 78.7275C45.8202 79.0886 45.978 79.4266 46.2331 79.6831L48.9011 82.3659C49.1562 82.6224 49.4924 82.7812 49.8516 82.8147C50.2107 82.8483 50.5703 82.7546 50.868 82.5497L54.5379 80.0255C54.8792 79.7871 55.2767 79.6428 55.6907 79.607C56.1048 79.5713 56.5209 79.6453 56.8976 79.8218C57.4394 80.0809 57.9943 80.3113 58.56 80.512C58.9511 80.6549 59.2981 80.8985 59.5662 81.2184C59.8344 81.5384 60.0142 81.9235 60.0879 82.3354L60.9083 86.7316C60.9748 87.0881 61.1631 87.41 61.4407 87.6416C61.7183 87.8732 62.0676 88 62.4283 88H66.201C66.5617 88 66.911 87.8732 67.1886 87.6417C67.4661 87.4101 67.6545 87.0882 67.721 86.7318L68.5414 82.3352C68.6151 81.9234 68.795 81.5383 69.0631 81.2184C69.3312 80.8984 69.6782 80.6549 70.0693 80.512C70.6351 80.3114 71.19 80.081 71.7317 79.8218C72.1084 79.6453 72.5246 79.5713 72.9386 79.607C73.3527 79.6428 73.7502 79.7871 74.0914 80.0255L77.762 82.5506C78.0597 82.7554 78.4193 82.8491 78.7785 82.8155C79.1376 82.7819 79.4738 82.6232 79.7289 82.3667L82.397 79.684C82.652 79.4275 82.8099 79.0895 82.8433 78.7284C82.8767 78.3673 82.7835 78.0058 82.5798 77.7065L80.0692 74.016C79.8321 73.6728 79.6887 73.2731 79.6532 72.8568C79.6178 72.4404 79.6915 72.022 79.867 71.6433C80.1247 71.0987 80.3537 70.5408 80.5531 69.972C80.6952 69.5788 80.9375 69.23 81.2556 68.9604C81.5738 68.6908 81.9567 68.5099 82.3662 68.4358L86.7383 67.6117C87.0929 67.5449 87.4131 67.3556 87.6435 67.0764C87.8739 66.7973 88 66.4459 88 66.0832V62.2896C88.0002 61.9267 87.8742 61.5752 87.6438 61.2958C87.4134 61.0165 87.0932 60.827 86.7385 60.7601ZM64.3152 73.0125C62.579 73.0125 60.8819 72.4948 59.4383 71.5249C57.9947 70.555 56.8696 69.1764 56.2052 67.5635C55.5408 65.9506 55.367 64.1759 55.7057 62.4636C56.0444 60.7514 56.8805 59.1786 58.1081 57.9442C59.3358 56.7097 60.8999 55.8691 62.6028 55.5285C64.3056 55.1879 66.0706 55.3627 67.6746 56.0307C69.2787 56.6988 70.6496 57.8301 71.6142 59.2817C72.5788 60.7332 73.0937 62.4398 73.0937 64.1855C73.0937 66.5266 72.1688 68.7718 70.5225 70.4272C68.8763 72.0825 66.6434 73.0125 64.3152 73.0125Z" fill="#7A7A7A"/>
</svg>
