<svg viewBox="0 0 40 40" fill="none" xmlns="http://www.w3.org/2000/svg">
<path d="M29.3968 0H10.3871C7.63227 0 4.99027 1.10024 3.04231 3.05867C1.09435 5.01711 2.27897e-07 7.67332 2.27897e-07 10.443V29.5549C-0.000285536 30.9264 0.268174 32.2846 0.790047 33.5519C1.31192 34.8191 2.07698 35.9706 3.04154 36.9406C4.0061 37.9105 5.15126 38.6799 6.41163 39.2049C7.67199 39.7298 9.02287 40 10.3871 40H29.3968C32.1522 40 34.7947 38.8995 36.7431 36.9407C38.6915 34.9818 39.786 32.3251 39.786 29.5549V10.443C39.7855 7.67312 38.6906 5.01691 36.7423 3.05854C34.794 1.10017 32.1518 -6.07406e-08 29.3968 0V0ZM33.9659 27.5096H5.81364V22.7496H14.1795L7.58907 16.126L10.9354 12.7595L17.5258 19.3875V10.0842H22.2581V19.3875L28.8506 12.7595L32.2013 16.126L25.6044 22.7496H33.9724L33.9659 27.5096Z" fill="#2CC995"/>
</svg>
