<svg width="45" height="45" viewBox="0 0 45 45" fill="none" xmlns="http://www.w3.org/2000/svg">
<rect width="45" height="45" rx="11" fill="white"/>
<g clip-path="url(#clip0_1_6)">
<path d="M32.1869 2H13.1772C10.4223 2 7.78032 3.10024 5.83236 5.05867C3.8844 7.01711 2.79005 9.67332 2.79005 12.443V31.5549C2.78977 32.9264 3.05823 34.2846 3.5801 35.5519C4.10197 36.8191 4.86703 37.9706 5.83159 38.9406C6.79615 39.9105 7.94131 40.6799 9.20168 41.2049C10.462 41.7298 11.8129 42 13.1772 42H32.1869C34.9423 42 37.5848 40.8995 39.5332 38.9407C41.4816 36.9818 42.5761 34.3251 42.5761 31.5549V12.443C42.5756 9.67312 41.4807 7.01691 39.5324 5.05854C37.5841 3.10017 34.9419 2 32.1869 2ZM36.756 29.5096H8.60369V24.7496H16.9696L10.3791 18.126L13.7255 14.7595L20.3159 21.3875V12.0842H25.0482V21.3875L31.6407 14.7595L34.9914 18.126L28.3945 24.7496H36.7625L36.756 29.5096Z" fill="#2CC995"/>
</g>
<defs>
<clipPath id="clip0_1_6">
<rect width="40" height="40" fill="white" transform="translate(2 2)"/>
</clipPath>
</defs>
</svg>
