<svg width="189" height="32" viewBox="0 0 189 40" fill="none" xmlns="http://www.w3.org/2000/svg">
<path d="M49.75 19.9957C49.75 13.9233 54.1472 9.61621 60.1306 9.61621C63.6357 9.61621 66.412 10.9593 68.2636 13.3787L64.852 16.6095C64.3402 15.892 63.6699 15.3035 62.8938 14.8902C62.1278 14.4864 61.2761 14.2748 60.4112 14.2733C57.3086 14.2733 55.1546 16.5549 55.1546 19.9761C55.1546 23.3972 57.3086 25.6832 60.4439 25.6832C61.3089 25.683 62.1609 25.4713 62.9264 25.0663C63.7034 24.6543 64.374 24.0656 64.8846 23.3469L68.2636 26.6281C66.4251 29.0475 63.6357 30.3906 60.1436 30.3906C54.1472 30.384 49.75 26.0747 49.75 19.9957Z" fill="#2CC995"/>
<path d="M84.7395 26.1035H76.7588L75.2793 29.9862H69.8398L78.1904 10.0146H83.4797L91.7911 29.9862H86.2255L84.7395 26.1035ZM83.1795 21.9473L80.7513 15.5468L78.3253 21.9407L83.1795 21.9473Z" fill="#2CC995"/>
<path d="M96.0316 14.5121H90.207V10.0146H107.113V14.5121H101.321V29.9862H96.0316V14.5121Z" fill="#2CC995"/>
<path d="M120.812 26.1035H112.831L111.35 29.9862H105.91L114.226 10.0146H119.515L127.872 29.9862H122.326L120.812 26.1035ZM119.252 21.9473L116.819 15.5468L114.391 21.9407L119.252 21.9473Z" fill="#2CC995"/>
<path d="M130.615 10.0146H135.959V25.5085H144.958V29.9862H130.598L130.615 10.0146Z" fill="#2CC995"/>
<path d="M146.699 19.9958C146.699 13.9999 151.149 9.625 157.191 9.625C163.233 9.625 167.678 14.0174 167.678 20.0045C167.678 25.9916 163.229 30.3928 157.191 30.3928C151.153 30.3928 146.699 25.9916 146.699 19.9958ZM162.289 19.9958C162.289 16.5483 160.048 14.2952 157.191 14.2952C154.334 14.2952 152.086 16.5483 152.086 19.9958C152.086 23.4432 154.33 25.7051 157.184 25.7051C160.039 25.7051 162.289 23.452 162.289 19.9958Z" fill="#2CC995"/>
<path d="M183.852 19.5692H188.6V27.8444C186.285 29.5069 183.509 30.3954 180.665 30.384C174.649 30.384 170.258 26.0747 170.258 19.9958C170.258 13.9168 174.627 9.625 180.749 9.625C184.281 9.625 187.142 10.9112 189 13.2759L185.593 16.5199C185.04 15.8193 184.338 15.2526 183.539 14.8618C182.755 14.4813 181.894 14.2875 181.024 14.2952C177.786 14.2952 175.63 16.5483 175.63 19.9958C175.63 23.4432 177.786 25.7051 180.971 25.7051C181.97 25.7147 182.957 25.49 183.854 25.0488L183.852 19.5692Z" fill="#2CC995"/>
<path d="M29.3968 0H10.3871C7.63227 0 4.99027 1.10024 3.04231 3.05867C1.09435 5.01711 2.27897e-07 7.67332 2.27897e-07 10.443V29.5549C-0.000285536 30.9264 0.268174 32.2846 0.790047 33.5519C1.31192 34.8191 2.07698 35.9706 3.04154 36.9406C4.0061 37.9105 5.15126 38.6799 6.41163 39.2049C7.67199 39.7298 9.02287 40 10.3871 40H29.3968C32.1522 40 34.7947 38.8995 36.7431 36.9407C38.6915 34.9818 39.786 32.3251 39.786 29.5549V10.443C39.7855 7.67312 38.6906 5.01691 36.7423 3.05854C34.794 1.10017 32.1518 -6.07406e-08 29.3968 0V0ZM33.9659 27.5096H5.81364V22.7496H14.1795L7.58907 16.126L10.9354 12.7595L17.5258 19.3875V10.0842H22.2581V19.3875L28.8506 12.7595L32.2013 16.126L25.6044 22.7496H33.9724L33.9659 27.5096Z" fill="#2CC995"/>
</svg>
