<svg width="68" height="68" viewBox="0 0 68 68" fill="none" xmlns="http://www.w3.org/2000/svg">
<rect y="8" width="60" height="60" rx="12" fill="#2A2B31"/>
<path fill-rule="evenodd" clip-rule="evenodd" d="M21.4624 53.0001L26.663 54.393V52.5715L27.0875 52.1429H30.0592V54.2858V55.7858H26.8752L22.9483 54.0715L21.4624 53.0001Z" fill="#CDBDB2"/>
<path fill-rule="evenodd" clip-rule="evenodd" d="M38.4438 53.0001L33.3495 54.393V52.5715L32.925 52.1429H29.9533V54.2858V55.7858H33.1372L37.064 54.0715L38.4438 53.0001Z" fill="#CDBDB2"/>
<path fill-rule="evenodd" clip-rule="evenodd" d="M27.0876 49.0358L26.6631 52.5714L27.1937 52.1429H32.7125L33.3493 52.5714L32.9248 49.0358L32.0757 48.5L27.8304 48.6072L27.0876 49.0358Z" fill="#393939"/>
<path fill-rule="evenodd" clip-rule="evenodd" d="M24.2217 25.1429L26.7688 31.1429L27.9364 48.6073H32.0754L33.349 31.1429L35.6839 25.1429H24.2217Z" fill="#F89C35"/>
<path fill-rule="evenodd" clip-rule="evenodd" d="M13.0781 38.3216L10.1064 47.0001L17.5357 46.5715H22.3115V42.8216L22.0993 35.1073L21.038 35.9644L13.0781 38.3216Z" fill="#F89D35"/>
<path fill-rule="evenodd" clip-rule="evenodd" d="M18.7031 39.2858L27.406 39.5001L26.4509 44.0001L22.3116 42.9286L18.7031 39.2858Z" fill="#D87C30"/>
<path fill-rule="evenodd" clip-rule="evenodd" d="M18.7031 39.3929L22.3116 42.8215V46.2501L18.7031 39.3929Z" fill="#EA8D3A"/>
<path fill-rule="evenodd" clip-rule="evenodd" d="M22.3115 42.9286L26.5568 44L27.9366 48.6073L26.9813 49.1429L22.3115 46.3572V42.9286Z" fill="#F89D35"/>
<path fill-rule="evenodd" clip-rule="evenodd" d="M22.3115 46.3572L21.4624 53L27.0875 49.0358L22.3115 46.3572Z" fill="#EB8F35"/>
<path fill-rule="evenodd" clip-rule="evenodd" d="M27.406 39.5L27.9368 48.6072L26.3447 43.9465L27.406 39.5Z" fill="#EA8E3A"/>
<path fill-rule="evenodd" clip-rule="evenodd" d="M17.4297 46.4644L22.3118 46.3572L21.4627 53L17.4297 46.4644Z" fill="#D87C30"/>
<path fill-rule="evenodd" clip-rule="evenodd" d="M12.4414 55.893L21.4625 53.0001L17.4295 46.4645L10.1064 47.0001L12.4414 55.893Z" fill="#EB8F35"/>
<path fill-rule="evenodd" clip-rule="evenodd" d="M26.7692 31.1429L22.2056 35.0001L18.7031 39.2858L27.406 39.6073L26.7692 31.1429Z" fill="#E8821E"/>
<path fill-rule="evenodd" clip-rule="evenodd" d="M21.4624 53.0001L27.0875 49.0359L26.663 52.4645V54.393L22.8422 53.6429L21.4624 53.0001Z" fill="#DFCEC3"/>
<path fill-rule="evenodd" clip-rule="evenodd" d="M38.4438 53.0001L32.925 49.0359L33.3495 52.4645V54.393L37.1703 53.6429L38.4438 53.0001Z" fill="#DFCEC3"/>
<path fill-rule="evenodd" clip-rule="evenodd" d="M25.0707 41.4286L26.2383 43.893L22.099 42.8215L25.0707 41.4286Z" fill="#393939"/>
<path fill-rule="evenodd" clip-rule="evenodd" d="M12.335 20.1073L26.7689 31.1429L24.328 25.1429L12.335 20.1073Z" fill="#E88F35"/>
<path fill-rule="evenodd" clip-rule="evenodd" d="M12.3352 20.1072L10.4248 26L11.4861 32.4286L10.7432 32.8572L11.8045 33.8215L10.9555 34.5715L12.1229 35.6429L11.38 36.2857L13.0781 38.4286L21.038 35.9643C24.9295 32.8215 26.8399 31.2143 26.7691 31.1429C26.6984 31.0715 21.8871 27.3929 12.3352 20.1072Z" fill="#8E5A30"/>
<path fill-rule="evenodd" clip-rule="evenodd" d="M46.8281 38.3216L49.7998 47.0001L42.3706 46.5715H37.5947V42.8216L37.807 35.1073L38.8683 35.9644L46.8281 38.3216Z" fill="#F89D35"/>
<path fill-rule="evenodd" clip-rule="evenodd" d="M41.2031 39.2858L32.5003 39.5001L33.4554 44.0001L37.5946 42.9286L41.2031 39.2858Z" fill="#D87C30"/>
<path fill-rule="evenodd" clip-rule="evenodd" d="M41.2031 39.3929L37.5946 42.8215V46.2501L41.2031 39.3929Z" fill="#EA8D3A"/>
<path fill-rule="evenodd" clip-rule="evenodd" d="M37.5947 42.9286L33.3494 44L31.9696 48.6073L32.9249 49.1429L37.5947 46.3572V42.9286Z" fill="#F89D35"/>
<path fill-rule="evenodd" clip-rule="evenodd" d="M37.5948 46.3572L38.4438 53L32.925 49.1429L37.5948 46.3572Z" fill="#EB8F35"/>
<path fill-rule="evenodd" clip-rule="evenodd" d="M32.5002 39.5L31.9694 48.6072L33.5615 43.9465L32.5002 39.5Z" fill="#EA8E3A"/>
<path fill-rule="evenodd" clip-rule="evenodd" d="M42.4766 46.4644L37.5945 46.3572L38.4435 53L42.4766 46.4644Z" fill="#D87C30"/>
<path fill-rule="evenodd" clip-rule="evenodd" d="M47.4649 55.893L38.4438 53.0001L42.4768 46.4645L49.7998 47.0001L47.4649 55.893Z" fill="#EB8F35"/>
<path fill-rule="evenodd" clip-rule="evenodd" d="M33.1371 31.1429L37.7007 35.0001L41.2031 39.2858L32.5003 39.6073L33.1371 31.1429Z" fill="#E8821E"/>
<path fill-rule="evenodd" clip-rule="evenodd" d="M34.8355 41.4286L33.668 43.893L37.8072 42.8215L34.8355 41.4286Z" fill="#393939"/>
<path fill-rule="evenodd" clip-rule="evenodd" d="M47.5713 20.1073L33.1373 31.1429L35.5783 25.1429L47.5713 20.1073Z" fill="#E88F35"/>
<path fill-rule="evenodd" clip-rule="evenodd" d="M47.5711 20.1072L49.4814 26L48.4201 32.4286L49.163 32.8572L48.1017 33.8215L48.9508 34.5715L47.7833 35.6429L48.5263 36.2857L46.8281 38.4286L38.8682 35.9643C34.9767 32.8215 33.0664 31.2143 33.1371 31.1429C33.2079 31.0715 38.0192 27.3929 47.5711 20.1072Z" fill="#8E5A30"/>
<path d="M57.9998 18.3333C53.3973 18.3333 49.6665 14.6025 49.6665 9.99996C49.6665 5.39746 53.3973 1.66663 57.9998 1.66663C62.6023 1.66663 66.3332 5.39746 66.3332 9.99996C66.3332 14.6025 62.6023 18.3333 57.9998 18.3333ZM57.1665 12.5V14.1666H58.8332V12.5H57.1665ZM57.1665 5.83329V10.8333H58.8332V5.83329H57.1665Z" fill="#EB4487"/>
</svg>
