<svg width="187" height="187" viewBox="0 0 187 187" fill="none" xmlns="http://www.w3.org/2000/svg">
<circle cx="93.5" cy="93.5" r="93.5" fill="#111318"/>
<path d="M115.144 174.56L111.3 163.562L100.29 159.706L111.3 155.861L115.144 144.863L118.989 155.861L129.998 159.706L118.989 163.562L115.144 174.56Z" fill="white"/>
<path d="M78.5606 44.5731L76.3976 38.3826L70.2031 36.2125L76.3976 34.0487L78.5606 27.8582L80.7237 34.0487L86.9181 36.2125L80.7237 38.3826L78.5606 44.5731Z" fill="white"/>
<path d="M53.4881 49.0305L52.3345 45.7289L49.0308 44.5715L52.3345 43.4174L53.4881 40.1158L54.6417 43.4174L57.9454 44.5715L54.6417 45.7289L53.4881 49.0305Z" fill="white"/>
<path d="M134.166 139.068C135.027 139.068 135.726 138.37 135.726 137.508C135.726 136.647 135.027 135.948 134.166 135.948C133.304 135.948 132.605 136.647 132.605 137.508C132.605 138.37 133.304 139.068 134.166 139.068Z" fill="white"/>
<path d="M57.2769 27.6353C58.1385 27.6353 58.8369 26.9368 58.8369 26.0752C58.8369 25.2136 58.1385 24.5151 57.2769 24.5151C56.4153 24.5151 55.7168 25.2136 55.7168 26.0752C55.7168 26.9368 56.4153 27.6353 57.2769 27.6353Z" fill="white"/>
<path d="M64.5756 109.575C64.5756 109.575 50.6353 108.695 48.5181 125.377C47.4037 133.912 42.1106 129.466 42.1106 129.466C42.1106 129.466 46.3451 135.439 50.1339 131.327C52.4739 128.786 56.3964 130.948 51.9948 135.439C47.9052 139.596 43.0801 140.598 36.7729 139.217C36.7729 139.217 52.3736 152.477 60.5528 137.913C61.6359 135.715 63.152 133.76 65.0102 132.163C67.5954 130.224 69.8352 133.188 67.7514 135.305C66.6055 136.341 65.3878 137.294 64.1076 138.158C64.1076 138.158 78.3042 132.308 78.1816 123.181C78.059 114.055 64.5756 109.575 64.5756 109.575Z" fill="#C43971" stroke="#9E2E5B" stroke-width="0.668599" stroke-miterlimit="10"/>
<path d="M44.373 141.535C47.8192 141.006 50.9891 139.339 53.3769 136.799C57.6336 132.464 55.4161 129.823 54.9258 129.333C54.5748 128.99 54.1576 128.722 53.6997 128.546C53.2418 128.37 52.7528 128.289 52.2625 128.308C51.2606 128.342 50.2944 128.689 49.499 129.299C49.9881 128.125 50.307 126.887 50.4462 125.622C52.1734 112.005 62.4252 111.492 64.2193 111.503C67.5517 112.718 70.6142 114.573 73.2343 116.964C74.123 117.754 74.8464 118.712 75.3628 119.783C75.8792 120.854 76.1784 122.017 76.243 123.204C76.2987 126.725 73.4905 129.89 70.3481 132.297C70.1631 131.692 69.8342 131.142 69.3898 130.692C68.6431 129.978 67.6544 129.572 66.6215 129.556C65.5885 129.539 64.5873 129.913 63.8182 130.603C61.7353 132.362 60.0329 134.527 58.8148 136.966C56.965 140.309 54.6583 142.136 51.7611 142.649C49.2426 142.982 46.6812 142.596 44.373 141.535Z" fill="#EB4487"/>
<path d="M90.5537 64.5789L66.8742 68.557C65.3324 68.8191 63.9108 69.5553 62.8069 70.6631L38.2916 95.1784C38.0461 95.4317 37.8718 95.7452 37.7861 96.0873C37.7005 96.4294 37.7065 96.7881 37.8037 97.1271C37.9009 97.4661 38.0858 97.7736 38.3397 98.0183C38.5936 98.2631 38.9076 98.4367 39.2499 98.5214L66.2056 105.018L90.5537 64.5789Z" fill="#1E8A66" stroke="#104A37" stroke-width="0.668599" stroke-miterlimit="10"/>
<path d="M39.1151 97.1954C39.0308 97.1125 38.9639 97.0136 38.9183 96.9046C38.8726 96.7955 38.8491 96.6785 38.8491 96.5603C38.8491 96.442 38.8726 96.325 38.9183 96.216C38.9639 96.1069 39.0308 96.008 39.1151 95.9251L63.6304 71.4098C64.5702 70.467 65.7824 69.8433 67.0959 69.6268L88.3797 66.0387L65.7365 103.692L39.5942 97.4294C39.4331 97.3949 39.2857 97.3135 39.1708 97.1954H39.1151Z" fill="#197053"/>
<path d="M121.653 95.8357L117.663 119.515C117.405 121.056 116.673 122.478 115.568 123.583L91.053 148.098C90.7998 148.343 90.4863 148.518 90.1442 148.603C89.802 148.689 89.4433 148.683 89.1043 148.586C88.7653 148.489 88.4579 148.304 88.2131 148.05C87.9683 147.796 87.7948 147.482 87.71 147.14L81.2246 120.184L121.653 95.8357Z" fill="#1E8A66" stroke="#104A37" stroke-width="0.668599" stroke-miterlimit="10"/>
<path d="M89.0256 147.273C88.9114 147.155 88.8307 147.009 88.7916 146.85L82.4956 120.685L120.149 98.0421L116.572 119.337C116.349 120.651 115.722 121.862 114.778 122.803L90.2625 147.318C90.0883 147.467 89.8645 147.545 89.6354 147.537C89.4063 147.529 89.1886 147.435 89.0256 147.273Z" fill="#197053"/>
<path d="M82.0849 123.304L79.0093 124.775L75.6663 124.429L61.8821 110.645L61.5366 107.302C62.0158 106.255 62.5172 105.23 63.0075 104.227C84.0796 61.2914 111.715 44.4093 130.748 37.7233C143.83 33.1545 152.845 33.4331 152.845 33.4331C152.845 33.4331 153.124 42.4481 148.555 55.5303C141.913 74.5965 125.009 102.232 82.0849 123.304Z" fill="#2CC995" stroke="#104A37" stroke-width="0.668599" stroke-miterlimit="10"/>
<path d="M81.2025 121.499C80.3556 121.922 79.5087 122.335 78.6618 122.725L76.578 122.513L63.7965 109.732L63.5737 107.648L64.7995 105.107C74.1821 85.9964 84.8574 72.1118 95.4993 62.0271C86.3952 71.6215 77.3915 84.1689 69.3571 100.561C68.9337 101.408 68.5213 102.254 68.1313 103.101L68.343 105.185L81.1245 117.955L83.2083 118.167C84.0552 117.766 84.902 117.365 85.7489 116.941C102.141 108.896 114.722 99.9033 124.283 90.7992C114.254 101.452 100.313 112.127 81.2025 121.499Z" fill="#27B082"/>
<path d="M148.554 55.5526L130.725 37.7233C143.807 33.1545 152.822 33.4331 152.822 33.4331C152.822 33.4331 153.123 42.4815 148.554 55.5526Z" fill="#1E8A66" stroke="#104A37" stroke-width="0.668599" stroke-miterlimit="10"/>
<path d="M132.797 38.2359C138.915 36.1591 145.289 34.933 151.741 34.592C151.397 41.0434 150.171 47.4172 148.097 53.5357L132.797 38.2359Z" fill="#197053"/>
<path d="M82.0849 123.304L79.0093 124.775L75.6663 124.43L61.8821 110.645L61.5366 107.302C62.0158 106.255 62.5172 105.23 63.0075 104.227L82.0849 123.304Z" fill="#1E8A66" stroke="#104A37" stroke-width="0.668599" stroke-miterlimit="10"/>
<path d="M62.9964 110.155L62.729 107.514C62.9407 107.057 63.1636 106.6 63.3864 106.143L80.2463 123.003L78.8757 123.661L76.2347 123.382L62.9964 110.155Z" fill="#197053"/>
<path d="M93.5947 95.0549L91.2545 92.7147C90.2971 91.7573 88.7449 91.7573 87.7875 92.7147L57.4671 123.035C56.5097 123.992 56.5097 125.545 57.4671 126.502L59.8073 128.842C60.7647 129.8 62.3169 129.8 63.2743 128.842L93.5947 98.5219C94.5521 97.5645 94.5521 96.0123 93.5947 95.0549Z" fill="#1E8A66" stroke="#104A37" stroke-width="0.668599" stroke-miterlimit="10"/>
<path d="M62.4772 128.053L92.7976 97.7329C93.3198 97.2107 93.3198 96.364 92.7976 95.8418L90.4574 93.5016C89.9352 92.9794 89.0885 92.9794 88.5663 93.5016L58.2459 123.822C57.7237 124.344 57.7237 125.191 58.2459 125.713L60.5861 128.053C61.1084 128.575 61.955 128.575 62.4772 128.053Z" fill="#197053"/>
<path d="M117.286 80.3577C123.545 80.3577 128.619 75.2838 128.619 69.0249C128.619 62.766 123.545 57.6921 117.286 57.6921C111.027 57.6921 105.953 62.766 105.953 69.0249C105.953 75.2838 111.027 80.3577 117.286 80.3577Z" fill="#27B082" stroke="#104A37" stroke-width="0.668599" stroke-miterlimit="10"/>
<path d="M117.286 79.2434C122.929 79.2434 127.504 74.6684 127.504 69.0249C127.504 63.3815 122.929 58.8065 117.286 58.8065C111.642 58.8065 107.067 63.3815 107.067 69.0249C107.067 74.6684 111.642 79.2434 117.286 79.2434Z" fill="#1E8A66"/>
<path opacity="0.5" d="M117.141 76.7364C121.32 76.7364 124.707 73.3488 124.707 69.1701C124.707 64.9913 121.32 61.6038 117.141 61.6038C112.962 61.6038 109.575 64.9913 109.575 69.1701C109.575 73.3488 112.962 76.7364 117.141 76.7364Z" fill="#5BBDEF"/>
<path d="M117.141 76.7364C121.32 76.7364 124.707 73.3488 124.707 69.1701C124.707 64.9913 121.32 61.6038 117.141 61.6038C112.962 61.6038 109.575 64.9913 109.575 69.1701C109.575 73.3488 112.962 76.7364 117.141 76.7364Z" stroke="#FAFAFA" stroke-width="0.668599" stroke-miterlimit="10"/>
<path d="M123.168 70.2399C123.207 70.2883 123.263 70.3201 123.324 70.329C123.366 70.3371 123.409 70.3369 123.451 70.3284C123.492 70.3199 123.532 70.3033 123.567 70.2795C123.602 70.2557 123.632 70.2252 123.656 70.1897C123.679 70.1542 123.695 70.1145 123.703 70.0728C123.794 69.6588 123.847 69.2372 123.859 68.8136C123.842 68.3264 123.764 67.8434 123.625 67.3761C123.614 67.3352 123.594 67.297 123.568 67.2639C123.541 67.2309 123.508 67.2036 123.47 67.1838C123.433 67.1639 123.391 67.152 123.349 67.1487C123.307 67.1453 123.264 67.1507 123.224 67.1643C123.143 67.19 123.076 67.2465 123.036 67.3215C122.996 67.3966 122.988 67.4842 123.012 67.5655C123.128 67.9722 123.195 68.3911 123.213 68.8136C123.196 69.1878 123.152 69.5603 123.079 69.9279C123.065 69.9831 123.066 70.0411 123.082 70.0959C123.097 70.1507 123.127 70.2004 123.168 70.2399Z" fill="#FAFAFA"/>
<path d="M123.324 67.1528H123.224C123.143 67.1785 123.076 67.2349 123.036 67.31C122.996 67.3851 122.988 67.4727 123.012 67.554C123.128 67.9607 123.195 68.3796 123.213 68.802C123.195 69.1762 123.151 69.5487 123.079 69.9164C123.069 69.9683 123.072 70.0218 123.088 70.0723C123.103 70.1228 123.131 70.1688 123.168 70.2061C123.207 70.2545 123.263 70.2863 123.324 70.2952H123.391C123.466 70.2988 123.539 70.2746 123.597 70.2272C123.654 70.1798 123.692 70.1127 123.703 70.0389C123.794 69.625 123.847 69.2034 123.859 68.7797C123.842 68.2926 123.764 67.8096 123.625 67.3422C123.604 67.2785 123.564 67.2227 123.51 67.1828C123.456 67.1429 123.391 67.1207 123.324 67.1194V67.1528Z" fill="#FAFAFA"/>
<path d="M123.135 71.2202C123.313 71.2202 123.458 71.0755 123.458 70.897C123.458 70.7185 123.313 70.5739 123.135 70.5739C122.956 70.5739 122.812 70.7185 122.812 70.897C122.812 71.0755 122.956 71.2202 123.135 71.2202Z" fill="#FAFAFA"/>
<path d="M123.168 70.5737C123.125 70.5716 123.082 70.5785 123.041 70.5938C123.001 70.6091 122.964 70.6327 122.934 70.6629C122.902 70.6931 122.877 70.7294 122.86 70.7696C122.842 70.8098 122.833 70.8531 122.833 70.8969C122.833 70.9407 122.842 70.984 122.86 71.0242C122.877 71.0644 122.902 71.1007 122.934 71.1309C122.964 71.1611 123.001 71.1846 123.041 71.2C123.082 71.2153 123.125 71.2222 123.168 71.2201C123.209 71.222 123.25 71.215 123.289 71.1996C123.327 71.1843 123.362 71.1608 123.391 71.1309C123.422 71.1007 123.448 71.0644 123.465 71.0242C123.482 70.984 123.491 70.9407 123.491 70.8969C123.491 70.8531 123.482 70.8098 123.465 70.7696C123.448 70.7294 123.422 70.6931 123.391 70.6629C123.362 70.633 123.327 70.6095 123.289 70.5941C123.25 70.5788 123.209 70.5718 123.168 70.5737Z" fill="#FAFAFA"/>
<path d="M119.826 75.0202C117.999 76.8588 114.622 76.4688 112.304 74.151C109.986 71.8332 109.596 68.4568 111.435 66.6181C111.833 66.2454 112.301 65.955 112.811 65.7637C113.322 65.5725 113.865 65.4841 114.41 65.5038L115.725 64.59L116.728 63.8992C116.782 63.8583 116.846 63.8329 116.913 63.8258C116.98 63.8187 117.047 63.8301 117.108 63.8589C117.169 63.8876 117.221 63.9326 117.258 63.9888C117.295 64.045 117.316 64.1104 117.319 64.1777L117.43 65.3924L117.508 66.4064C118.036 66.7152 118.523 67.0896 118.957 67.5207C119.382 67.9434 119.756 68.4147 120.071 68.9248L121.063 69.0028L122.278 69.1142C122.345 69.1167 122.41 69.1377 122.467 69.1749C122.523 69.212 122.568 69.2639 122.596 69.3248C122.625 69.3858 122.637 69.4535 122.63 69.5205C122.622 69.5875 122.597 69.6513 122.556 69.7048L121.865 70.7077L120.996 71.9558C121.021 72.5194 120.93 73.0823 120.729 73.6094C120.528 74.1365 120.22 74.6166 119.826 75.0202Z" fill="#EBC05B" stroke="#6B582A" stroke-width="0.668599" stroke-linecap="round" stroke-linejoin="round"/>
<path d="M112.851 73.605C110.834 71.5881 110.444 68.702 111.982 67.1642C112.303 66.8536 112.684 66.6108 113.101 66.45C113.519 66.2892 113.964 66.2138 114.411 66.2282C114.566 66.2284 114.717 66.1818 114.845 66.0945L116.617 64.8575L116.751 66.4287C116.763 66.6106 116.843 66.7813 116.974 66.9079L117.119 67.0193C117.591 67.3053 118.029 67.6456 118.422 68.0334C118.799 68.4081 119.128 68.8272 119.403 69.2814C119.434 69.3343 119.471 69.383 119.514 69.4263C119.641 69.5574 119.812 69.6368 119.994 69.6492L121.542 69.7829L120.361 71.4878C120.269 71.6176 120.222 71.7743 120.228 71.9335C120.257 72.3989 120.19 72.8653 120.028 73.3029C119.867 73.7404 119.616 74.1394 119.292 74.4742C117.754 76.012 114.868 75.6108 112.851 73.605Z" fill="#F7CA60"/>
<path d="M114.519 71.9225C114.466 71.9785 114.402 72.0231 114.331 72.0535C114.26 72.084 114.184 72.0997 114.107 72.0997C114.03 72.0997 113.953 72.084 113.882 72.0535C113.812 72.0231 113.748 71.9785 113.695 71.9225C113.587 71.8122 113.527 71.6643 113.527 71.5102C113.527 71.3562 113.587 71.2082 113.695 71.0979" stroke="#6B582A" stroke-width="0.668599" stroke-linecap="round" stroke-linejoin="round"/>
<path d="M115.367 72.758C115.256 72.8688 115.106 72.9311 114.949 72.9311C114.793 72.9311 114.642 72.8688 114.531 72.758C114.421 72.6472 114.358 72.4968 114.358 72.3401C114.358 72.1834 114.421 72.0331 114.531 71.9222" stroke="#6B582A" stroke-width="0.668599" stroke-linecap="round" stroke-linejoin="round"/>
</svg>
