<svg width="78" height="78" viewBox="0 0 78 78" fill="none" xmlns="http://www.w3.org/2000/svg">
<path d="M45.25 6.5C45.25 3.0625 42.4375 0.25 39 0.25C35.4062 0.25 32.75 3.0625 32.75 6.5C32.75 10.0938 35.4062 12.75 39 12.75C42.4375 12.75 45.25 10.0938 45.25 6.5ZM39 65.25C35.4062 65.25 32.75 68.0625 32.75 71.5C32.75 75.0938 35.4062 77.75 39 77.75C42.4375 77.75 45.25 75.0938 45.25 71.5C45.25 68.0625 42.4375 65.25 39 65.25ZM77.75 39C77.75 35.5625 74.9375 32.75 71.5 32.75C67.9062 32.75 65.25 35.5625 65.25 39C65.25 42.5938 67.9062 45.25 71.5 45.25C74.9375 45.25 77.75 42.5938 77.75 39ZM12.75 39C12.75 35.5625 9.9375 32.75 6.5 32.75C2.90625 32.75 0.25 35.5625 0.25 39C0.25 42.5938 2.90625 45.25 6.5 45.25C9.9375 45.25 12.75 42.5938 12.75 39ZM15.875 9.78125C12.4375 9.78125 9.625 12.5938 9.625 16.0312C9.625 19.625 12.4375 22.2812 15.875 22.2812C19.4688 22.2812 22.125 19.625 22.125 16.0312C22.125 12.5938 19.4688 9.78125 15.875 9.78125ZM61.9688 55.875C58.375 55.875 55.7188 58.5312 55.7188 62.125C55.7188 65.5625 58.375 68.375 61.9688 68.375C65.4062 68.375 68.2188 65.5625 68.2188 62.125C68.2188 58.5312 65.4062 55.875 61.9688 55.875ZM15.875 55.875C12.4375 55.875 9.625 58.5312 9.625 62.125C9.625 65.5625 12.4375 68.375 15.875 68.375C19.4688 68.375 22.125 65.5625 22.125 62.125C22.125 58.5312 19.4688 55.875 15.875 55.875Z" fill="#2CC995"/>
</svg>
